HIERARCHY
ROOT pelvis
{
  OFFSET 0 100 0
  CHANNELS 6 Xposition Yposition Zposition Zrotation Xrotation Yrotation
  JOINT pelvis_right_femur
  {
    OFFSET -10.78128 -3.44521 -0.5502486
    CHANNELS 3 Zrotation Xrotation Yrotation
    JOINT right_femur_tibia
    {
      OFFSET -0.8047443 -44.0398 -0.1307829
      CHANNELS 3 Zrotation Xrotation Yrotation
      JOINT right_tibia_foot
      {
        OFFSET 3.006224 -47.83518 -5
        CHANNELS 3 Zrotation Xrotation Yrotation
        End Site
        {
          OFFSET 0 -5 15
        }
      }
    }
  }
  JOINT pelvis_left_femur
  {
    OFFSET 10.78128 -3.44521 -0.5502486
    CHANNELS 3 Zrotation Xrotation Yrotation
    JOINT left_femur_tibia
    {
      OFFSET 0.8047443 -44.0398 -0.1307829
      CHANNELS 3 Zrotation Xrotation Yrotation
      JOINT left_tibia_foot
      {
        OFFSET -4.370144 -48.10324 -4.275266
        CHANNELS 3 Zrotation Xrotation Yrotation
        End Site
        {
          OFFSET 0 -5 15
        }
      }
    }
  }
  JOINT pelvis_spine1
  {
    OFFSET 0 6.468898 -3.129235
    CHANNELS 3 Zrotation Xrotation Yrotation
    JOINT spine1
    {
      OFFSET 0 23.15396 4.99043
      CHANNELS 3 Zrotation Xrotation Yrotation
      JOINT spine2
      {
        OFFSET 0 20.79997 -5.064912
        CHANNELS 3 Zrotation Xrotation Yrotation
        JOINT neck
        {
          OFFSET 0 14.38658 9.616178
          CHANNELS 3 Zrotation Xrotation Yrotation
          End Site
          {
            OFFSET 0 20 0
          }
        }
      }
      JOINT right_manubrium
      {
        OFFSET -5.722621 16.35077 3.967754
        CHANNELS 3 Zrotation Xrotation Yrotation
        JOINT right_clavicle
        {
          OFFSET -13.16364 1.694482 -4.693211
          CHANNELS 3 Zrotation Xrotation Yrotation
          JOINT right_humerus
          {
            OFFSET -28.5034 -0.3100689 -2.792744
            CHANNELS 3 Zrotation Xrotation Yrotation
            JOINT right_radius
            {
              OFFSET -25.15693 0.02248979 -1.271978
              CHANNELS 3 Zrotation Xrotation Yrotation
              End Site
              {
                OFFSET -15 0 0
              }
            }
          }
        }
      }
      JOINT left_manubrium
      {
        OFFSET 5.722621 16.35077 3.967754
        CHANNELS 3 Zrotation Xrotation Yrotation
        JOINT left_clavicle
        {
          OFFSET 13.16364 1.694482 -4.693211
          CHANNELS 3 Zrotation Xrotation Yrotation
          JOINT left_humerus
          {
            OFFSET 29.39168 -1.063119 -2.237045
            CHANNELS 3 Zrotation Xrotation Yrotation
            JOINT left_radius
            {
              OFFSET 24.59957 -0.9528479 0.9047498
              CHANNELS 3 Zrotation Xrotation Yrotation
              End Site
              {
                OFFSET 15 -0 -0
              }
            }
          }
        }
      }
    }
  }
}
MOTION
Frames: 13
Frame Time: 0.0416666666667
0 103.5113 0 0.8472526 -1.313908 0.2405421 3.527219 -14.57078 8.092443 3.632269e-07 36.53711 -3.672868e-07 -7.2561 -18.34455 -3.244808 -7.116771 5.802116 -22.5384 3.503079e-07 5.806219 6.081579e-07 6.972111 -17.97876 25.63786 -3.809538 -2.380693 4.689382 2.26624 8.997203 -7.279516 1.085286 22.59104 7.004182 2.988731 -23.88118 9.264043 5.928384 -20.17533 11.50123 84.6597 35.71545 -17.02488 -1.266406e-08 -4.789182e-09 17.23912 -6.698819 7.735408 4.962158 5.014557 -19.03649 -1.518878 -95.55122 30.20347 24.44118 -1.430526e-07 7.484478e-08 -15.20871 3.771992 17.35925 9.659865
0.4104872 103.4075 1.111021 0.8032402 -1.170125 0.5375577 3.643829 -16.1956 8.273128 3.003029e-07 37.79951 -3.439276e-07 -6.873724 -17.40894 -3.469598 -7.111136 7.527987 -22.6114 2.690615e-07 5.677404 6.464098e-07 6.853973 -18.31604 25.21987 -3.790005 -2.504894 4.531029 2.341515 9.087042 -7.537514 1.06243 22.40403 7.095695 3.007099 -23.91349 9.332956 6.066594 -20.00652 11.53619 85.25953 35.68219 -17.87308 -3.924559e-09 1.765489e-08 17.07153 -6.710494 8.048321 4.841363 5.01571 -19.2116 -1.645996 -95.26357 30.16255 24.09 -1.492384e-07 6.701617e-08 -15.8149 3.658637 17.13729 9.850643
0.8167168 103.3342 2.401681 0.7279517 -0.8372151 0.878661 3.84148 -18.07508 8.240765 2.003559e-07 37.46732 -2.318737e-07 -6.500493 -16.18854 -3.496394 -7.059654 9.218373 -22.54497 1.990949e-07 5.558392 6.167676e-07 6.596033 -18.78348 24.67989 -3.72421 -2.59975 4.372689 2.450618 9.158012 -7.777329 1.031835 22.16861 7.23912 3.105729 -24.05665 9.388957 6.137564 -19.78867 11.58467 85.84915 35.62199 -18.81534 4.793012e-09 2.633721e-08 16.71628 -6.883816 8.324894 4.79314 5.168558 -19.51238 -1.769347 -94.86388 29.9913 23.5201 -1.364361e-07 6.446891e-08 -16.77144 3.668932 16.87241 9.871121
1.212973 103.2224 3.939967 0.6209932 -0.3070385 1.225093 4.095975 -19.99822 7.982893 7.469801e-08 35.43757 -3.725616e-08 -6.167367 -14.71766 -3.272783 -6.981273 10.65668 -22.34408 1.504966e-07 5.49996 4.946868e-07 6.180925 -19.33842 24.05871 -3.614492 -2.652048 4.237804 2.583247 9.196592 -7.958531 0.9974929 21.89882 7.437605 3.297266 -24.32623 9.43363 6.143276 -19.53163 11.64496 86.33644 35.56348 -19.7425 1.289308e-08 1.865245e-08 16.19363 -7.226229 8.527831 4.842458 5.479083 -19.90073 -1.858709 -94.4276 29.6993 22.81234 -1.047347e-07 6.716069e-08 -17.98187 3.798647 16.57268 9.728632
1.589515 103.0076 5.773705 0.4990643 0.3425696 1.546458 4.393173 -22.07359 7.57709 -4.941163e-08 32.06857 2.023659e-07 -5.816915 -13.06939 -2.907657 -6.891934 12.00534 -22.04089 1.198684e-07 5.58694 3.045293e-07 5.62425 -20.01201 23.39158 -3.476229 -2.656922 4.115009 2.732248 9.205371 -8.098412 0.969972 21.61784 7.681189 3.560867 -24.6703 9.48126 6.098275 -19.20643 11.71425 86.79922 35.47246 -20.72517 2.044336e-08 -1.862019e-09 15.50603 -7.712292 8.684838 4.942103 5.928697 -20.3677 -1.930426 -93.93729 29.33741 21.88997 -5.832536e-08 7.303854e-08 -19.47049 3.997051 16.22891 9.479409
1.940259 102.6396 7.911039 0.3647463 1.058371 1.810883 4.692159 -23.93878 7.052174 -1.4337e-07 27.66849 4.504079e-07 -5.548027 -11.46383 -2.407901 -6.792966 12.9929 -21.65362 1.176313e-07 5.829355 5.716313e-08 4.982855 -20.65667 22.72622 -3.315706 -2.615765 4.022394 2.880275 9.172602 -8.165551 0.9490997 21.33844 7.930028 3.861196 -25.04783 9.51171 6.002922 -18.85433 11.77226 87.05159 35.38754 -21.55552 2.585188e-08 -3.350029e-08 14.73112 -8.245928 8.749766 5.081108 6.450964 -20.83108 -1.956484 -93.40046 28.93878 20.89956 -2.781027e-09 8.085201e-08 -20.98666 4.258014 15.88816 9.127711
2.265408 102.1375 10.4329 0.1610689 1.823961 2.024553 4.999191 -25.63515 6.480276 -2.045973e-07 23.15056 6.66722e-07 -5.389411 -9.864539 -1.912777 -6.626458 13.95137 -21.16499 1.259397e-07 6.395814 -2.086875e-07 4.077516 -21.1017 21.78799 -3.103594 -2.572511 3.886888 3.046823 9.091899 -8.238416 0.9257942 21.05283 8.157466 4.133362 -25.42692 9.535376 5.897699 -18.45446 11.784 87.32224 35.3599 -22.343 3.074852e-08 -6.674131e-08 13.88181 -8.755895 8.856667 5.271946 6.928314 -21.24331 -1.927467 -92.88885 28.55639 19.95614 4.156387e-08 8.642622e-08 -22.37659 4.484164 15.49405 8.839779
2.559615 101.5279 13.35027 -0.0654598 2.458018 2.198276 5.253909 -26.93364 5.926801 -2.179761e-07 19.16574 8.070793e-07 -5.382133 -8.634696 -1.552106 -6.408931 14.77837 -20.6134 1.534101e-07 7.355885 -4.31953e-07 3.053448 -21.26753 20.72316 -2.881614 -2.51495 3.712437 3.204855 8.970067 -8.317746 0.9040218 20.84526 8.311037 4.313907 -25.70212 9.537247 5.782779 -18.03355 11.73756 87.63445 35.38284 -23.00739 3.339591e-08 -9.720142e-08 13.01372 -9.163437 8.991333 5.465614 7.277634 -21.56675 -1.864779 -92.39591 28.27802 19.05166 6.689536e-08 8.820359e-08 -23.49037 4.65465 15.11987 8.628495
2.835047 100.929 16.75463 -0.3697886 2.948266 2.371979 5.493785 -27.65706 5.485112 -2.178881e-07 16.65223 8.535253e-07 -5.530968 -7.609649 -1.390026 -6.106145 15.58348 -19.97099 1.887341e-07 9.063147 -6.31308e-07 1.758037 -20.88819 19.30341 -2.606139 -2.495936 3.473921 3.359788 8.837106 -8.44611 0.8743289 20.67581 8.36917 4.360232 -25.86417 9.512571 5.702406 -17.61609 11.62321 88.10003 35.47298 -23.57336 3.658479e-08 -1.125896e-07 12.20618 -9.437108 9.274689 5.694446 7.369559 -21.72672 -1.769728 -92.03913 28.09825 18.46383 5.752302e-08 8.317175e-08 -24.0796 4.665846 14.69571 8.669837
3.107204 100.4847 20.67746 -0.7148053 3.209313 2.576621 5.686624 -27.53194 5.166564 -2.121017e-07 15.96144 7.908454e-07 -5.904302 -6.846097 -1.402749 -5.758438 16.12451 -19.24675 2.518491e-07 11.71405 -8.283357e-07 0.3848881 -19.8478 17.67859 -2.305005 -2.51794 3.207534 3.486401 8.733205 -8.597678 0.8281169 20.55596 8.30897 4.263941 -25.87194 9.424617 5.667634 -17.23352 11.45267 88.54659 35.65769 -23.91126 4.006605e-08 -1.085906e-07 11.4689 -9.533374 9.647177 5.925017 7.146947 -21.70284 -1.665386 -91.71997 28.01008 18.24162 1.568581e-08 6.788351e-08 -24.0138 4.562221 14.27398 8.894899
3.389031 100.3297 25.12632 -1.073135 3.191629 2.816692 5.899416 -26.54815 5.028928 -1.988717e-07 16.75325 6.267463e-07 -6.421463 -6.39295 -1.596404 -5.375579 16.28698 -18.43127 3.672204e-07 15.5943 -1.071107e-06 -0.9947469 -18.17093 15.99975 -1.966292 -2.560039 2.964438 3.574812 8.687681 -8.744195 0.7814015 20.49068 8.128802 4.043829 -25.719 9.271933 5.6565 -16.90263 11.25969 88.96032 35.83084 -24.04874 4.369601e-08 -8.502693e-08 10.83306 -9.485713 10.09317 6.114126 6.646283 -21.5179 -1.57856 -91.47077 27.97771 18.37311 -4.870315e-08 4.344179e-08 -23.38484 4.33773 13.85647 9.288758
3.687553 100.5606 30.09625 -1.414849 2.939794 3.054805 6.200311 -24.58929 5.051832 -1.659582e-07 17.95324 3.868809e-07 -7.004273 -6.346059 -1.87294 -4.952516 15.66162 -17.42979 5.885073e-07 21.05438 -1.458805e-06 -2.354914 -15.88802 14.40711 -1.576335 -2.58586 2.842803 3.625675 8.73103 -8.843117 0.7353657 20.48368 7.854126 3.759 -25.45331 9.041434 5.656551 -16.66087 11.11006 89.31879 35.98789 -24.01183 4.341242e-08 -4.711188e-08 10.32431 -9.422877 10.607 6.28308 5.960655 -21.24494 -1.50502 -91.40834 27.93634 18.87614 -1.097243e-07 1.391807e-08 -22.41782 4.005881 13.41875 9.81674
3.973872 101.2044 35.38811 -1.588804 2.342174 3.204084 6.530736 -21.80004 5.221925 -8.45165e-08 18.82935 7.428581e-08 -7.583188 -7.012058 -2.223338 -4.578221 13.9879 -16.29628 1.008541e-06 28.12234 -2.052497e-06 -3.323193 -13.33535 13.35242 -1.236831 -2.523224 2.931751 3.606513 8.898601 -8.84243 0.6965754 20.60449 7.500465 3.464221 -25.01391 8.71027 5.663669 -16.4768 11.06224 89.40629 36.1304 -23.79593 3.423479e-08 -1.220235e-09 9.83698 -9.347049 11.02701 6.294523 5.206397 -21.00004 -1.497415 -91.26066 27.9089 19.33684 -1.378064e-07 -1.983438e-08 -21.47724 3.693398 13.07407 10.23649
